<svg xmlns="http://www.w3.org/2000/svg">
  <symbol id="icon-heart" viewBox="0 0 24 24">
    <path d="M20.5 8.1c0 5.1-8.5 9.6-8.5 9.6S3.5 13.2 3.5 8.1A4.4 4.4 0 0 1 12 6.3a4.4 4.4 0 0 1 8.5 1.8Z"/>
  </symbol>
  <symbol id="icon-shield" viewBox="0 0 24 24">
    <path d="M12 3.5 19 6v5.4c0 4.5-3 7.7-7 9.1-4-1.4-7-4.6-7-9.1V6l7-2.5Z"/>
    <path d="m9.5 12 1.7 1.7 3.8-4"/>
  </symbol>
  <symbol id="icon-blocks" viewBox="0 0 24 24">
    <rect x="4" y="4" width="6.5" height="6.5" rx="1.4"/>
    <rect x="13.5" y="4" width="6.5" height="6.5" rx="1.4"/>
    <rect x="4" y="13.5" width="6.5" height="6.5" rx="1.4"/>
    <path d="M14.5 14h4a1.5 1.5 0 0 1 1.5 1.5v3A1.5 1.5 0 0 1 18.5 20H15a1.5 1.5 0 0 1-1.5-1.5V17"/>
  </symbol>
  <symbol id="icon-message" viewBox="0 0 24 24">
    <path d="M5.5 18.5a7.8 7.8 0 1 1 3 1.6L4 21l1.5-2.5Z"/>
    <path d="M8.5 11h7"/>
    <path d="M8.5 14h4.5"/>
  </symbol>
  <symbol id="icon-tree" viewBox="0 0 24 24">
    <path d="M12 19v-5"/>
    <path d="M8 19h8"/>
    <path d="M7.4 14.5a4.1 4.1 0 0 1 1.1-8 4.6 4.6 0 0 1 7 0 4.1 4.1 0 0 1 1.1 8H7.4Z"/>
  </symbol>
  <symbol id="icon-book" viewBox="0 0 24 24">
    <path d="M4.5 5.5h5.2A3.3 3.3 0 0 1 13 8.8v10.7a3.8 3.8 0 0 0-3.3-1.8H4.5V5.5Z"/>
    <path d="M19.5 5.5h-5.2A3.3 3.3 0 0 0 11 8.8v10.7a3.8 3.8 0 0 1 3.3-1.8h5.2V5.5Z"/>
  </symbol>
  <symbol id="icon-numbers" viewBox="0 0 24 24">
    <path d="M7 4v16"/>
    <path d="M4 7h6"/>
    <path d="M4 17h6"/>
    <path d="M15 7.7A3.3 3.3 0 0 1 18.4 4a3.1 3.1 0 0 1 3.1 3.1c0 3.3-5.1 4.4-6.3 8.1h6.3"/>
    <path d="M15 20h6.5"/>
  </symbol>
  <symbol id="icon-hand" viewBox="0 0 24 24">
    <path d="M7.5 12.5V6.8a1.4 1.4 0 0 1 2.8 0V12"/>
    <path d="M10.3 11.7V5.5a1.4 1.4 0 0 1 2.8 0v6.2"/>
    <path d="M13.1 12V6.7a1.4 1.4 0 0 1 2.8 0v6.1"/>
    <path d="M15.9 13.1V9.4a1.4 1.4 0 0 1 2.8 0v5.2c0 4.1-2.4 6.4-6.1 6.4H11a5 5 0 0 1-4.3-2.4L4.2 14a1.6 1.6 0 0 1 2.7-1.7l1.8 2.4"/>
  </symbol>
  <symbol id="icon-palette" viewBox="0 0 24 24">
    <path d="M12 4a8 8 0 0 0 0 16h1.1a1.9 1.9 0 0 0 1.4-3.2 1.6 1.6 0 0 1 1.2-2.7h1.1A3.2 3.2 0 0 0 20 10.8C20 7 16.4 4 12 4Z"/>
    <circle cx="8.7" cy="10" r=".7"/>
    <circle cx="11.6" cy="8" r=".7"/>
    <circle cx="14.8" cy="10" r=".7"/>
    <circle cx="10.1" cy="13.2" r=".7"/>
  </symbol>
  <symbol id="icon-users" viewBox="0 0 24 24">
    <circle cx="9" cy="8" r="3"/>
    <path d="M3.8 19a5.3 5.3 0 0 1 10.4 0"/>
    <path d="M15.7 5.2a3 3 0 0 1 0 5.6"/>
    <path d="M17.1 14.1a5 5 0 0 1 3.1 4.9"/>
  </symbol>
  <symbol id="icon-backpack" viewBox="0 0 24 24">
    <path d="M8.5 7V5.8A2.8 2.8 0 0 1 11.3 3h1.4a2.8 2.8 0 0 1 2.8 2.8V7"/>
    <rect x="5.5" y="7" width="13" height="14" rx="3"/>
    <path d="M8 13h8"/>
    <path d="M9 17h6"/>
  </symbol>
  <symbol id="icon-baby" viewBox="0 0 24 24">
    <circle cx="12" cy="8" r="3.2"/>
    <path d="M7.5 19a4.5 4.5 0 0 1 9 0"/>
    <path d="M8.8 9.1 7.2 7.5"/>
    <path d="M15.2 9.1 16.8 7.5"/>
  </symbol>
  <symbol id="icon-steps" viewBox="0 0 24 24">
    <path d="M8.2 5.5c1.2-.6 2.6 0 3.2 1.2.8 1.5.1 3.8-1.4 4.6-1.3.7-3 .1-3.7-1.3-.8-1.6.2-3.6 1.9-4.5Z"/>
    <path d="M15.9 12.7c1.3-.5 2.7.2 3.1 1.5.6 1.7-.5 3.7-2.1 4.2-1.4.5-3-.2-3.5-1.6-.6-1.7.7-3.6 2.5-4.1Z"/>
  </symbol>
  <symbol id="icon-route" viewBox="0 0 24 24">
    <circle cx="6" cy="6" r="2.2"/>
    <circle cx="18" cy="18" r="2.2"/>
    <path d="M8.2 6h4.3a3 3 0 0 1 0 6H11a3 3 0 0 0 0 6h4.8"/>
  </symbol>
  <symbol id="icon-phone" viewBox="0 0 24 24">
    <path d="M7.2 4.5 9 8.6l-2 1.5a11.8 11.8 0 0 0 6.9 6.9l1.5-2 4.1 1.8-.8 3a2 2 0 0 1-2.2 1.4C8.9 19.9 4.1 15.1 2.8 7.5a2 2 0 0 1 1.4-2.2l3-.8Z"/>
  </symbol>
  <symbol id="icon-mail" viewBox="0 0 24 24">
    <rect x="3.5" y="5.5" width="17" height="13" rx="2"/>
    <path d="m4.5 7 7.5 6 7.5-6"/>
  </symbol>
  <symbol id="icon-pin" viewBox="0 0 24 24">
    <path d="M12 21s6-5.2 6-11a6 6 0 1 0-12 0c0 5.8 6 11 6 11Z"/>
    <circle cx="12" cy="10" r="2.2"/>
  </symbol>
  <symbol id="icon-clock" viewBox="0 0 24 24">
    <circle cx="12" cy="12" r="8.5"/>
    <path d="M12 7.5V12l3 2"/>
  </symbol>
  <symbol id="icon-sun" viewBox="0 0 24 24">
    <circle cx="12" cy="12" r="4"/>
    <path d="M12 2.8v2"/>
    <path d="M12 19.2v2"/>
    <path d="M4.2 4.2 5.6 5.6"/>
    <path d="m18.4 18.4 1.4 1.4"/>
    <path d="M2.8 12h2"/>
    <path d="M19.2 12h2"/>
    <path d="m4.2 19.8 1.4-1.4"/>
    <path d="m18.4 5.6 1.4-1.4"/>
  </symbol>
  <symbol id="icon-user-check" viewBox="0 0 24 24">
    <circle cx="9" cy="8" r="3.2"/>
    <path d="M3.5 19a5.6 5.6 0 0 1 10.4-2.9"/>
    <path d="m15.5 17.5 1.8 1.8 3.2-4"/>
  </symbol>
  <symbol id="icon-check" viewBox="0 0 24 24">
    <path d="m5 12.5 4.2 4.2L19 7"/>
  </symbol>
</svg>
